HIERARCHY
ROOT Hip
{
	OFFSET	0.0000	0.0000	0.0000
	CHANNELS 6 Xposition Yposition Zposition Xrotation Yrotation Zrotation
	JOINT LowerSpine
	{
		OFFSET	0.0000	10.1932	-5.5160
		CHANNELS 3 Xrotation Yrotation Zrotation
		JOINT MiddleSpine
		{
			OFFSET	0.0000	9.3020	0.4860
			CHANNELS 3 Xrotation Yrotation Zrotation
			JOINT Chest
			{
				OFFSET	0.0000	11.5102	-2.5620
				CHANNELS 3 Xrotation Yrotation Zrotation
				JOINT Neck
				{
					OFFSET	0.0000	25.9379	-0.5394
					CHANNELS 3 Xrotation Yrotation Zrotation
					JOINT Head
					{
						OFFSET	-0.0001	14.6474	3.9841
						CHANNELS 3 Xrotation Yrotation Zrotation
						End Site
						{
							OFFSET	0.0001	20.4661	0.6110
						}
					}
				}
				JOINT LClavicle
				{
					OFFSET	2.6187	25.0313	8.5759
					CHANNELS 3 Xrotation Yrotation Zrotation
					JOINT LShoulder
					{
						OFFSET	15.2984	3.5904	-5.8096
						CHANNELS 3 Xrotation Yrotation Zrotation
						JOINT LForearm
						{
							OFFSET	32.4969	-0.1152	-0.2816
							CHANNELS 3 Xrotation Yrotation Zrotation
							JOINT LHand
							{
								OFFSET	27.1093	0.0786	-0.1624
								CHANNELS 3 Xrotation Yrotation Zrotation
								JOINT LFinger1
								{
									OFFSET	10.5068	0.9189	2.9182
									CHANNELS 3 Xrotation Yrotation Zrotation
									JOINT LFinger11
									{
										OFFSET	3.9301	-0.9583	0.6925
										CHANNELS 3 Xrotation Yrotation Zrotation
										JOINT LFinger12
										{
											OFFSET	2.6830	-0.6544	0.4729
											CHANNELS 3 Xrotation Yrotation Zrotation
											End Site
											{
												OFFSET	1.9092	-0.5699	0.3097
											}
										}
									}
								}
								JOINT LFinger2
								{
									OFFSET	10.6636	1.0611	0.2541
									CHANNELS 3 Xrotation Yrotation Zrotation
									JOINT LFinger21
									{
										OFFSET	4.8593	0.0136	-0.0287
										CHANNELS 3 Xrotation Yrotation Zrotation
										JOINT LFinger22
										{
											OFFSET	2.6935	0.0083	-0.0164
											CHANNELS 3 Xrotation Yrotation Zrotation
											End Site
											{
												OFFSET	2.4193	-0.1708	0.0032
											}
										}
									}
								}
								JOINT LFinger3
								{
									OFFSET	10.1060	0.7082	-2.3909
									CHANNELS 3 Xrotation Yrotation Zrotation
									JOINT LFinger31
									{
										OFFSET	4.4093	-0.2232	-0.2761
										CHANNELS 3 Xrotation Yrotation Zrotation
										JOINT LFinger32
										{
											OFFSET	2.5127	-0.1264	-0.1578
											CHANNELS 3 Xrotation Yrotation Zrotation
											End Site
											{
												OFFSET	2.2216	-0.2731	-0.1050
											}
										}
									}
								}
								JOINT LFinger4
								{
									OFFSET	9.3780	-0.7126	-4.1291
									CHANNELS 3 Xrotation Yrotation Zrotation
									JOINT LFinger41
									{
										OFFSET	2.7122	-0.5656	-0.7487
										CHANNELS 3 Xrotation Yrotation Zrotation
										JOINT LFinger42
										{
											OFFSET	1.9889	-0.4142	-0.5494
											CHANNELS 3 Xrotation Yrotation Zrotation
											End Site
											{
												OFFSET	1.7652	-0.4850	-0.4050
											}
										}
									}
								}
								JOINT LFinger0
								{
									OFFSET	2.1735	-1.6451	1.6477
									CHANNELS 3 Xrotation Yrotation Zrotation
									JOINT LFinger01
									{
										OFFSET	4.0467	-1.3289	3.0509
										CHANNELS 3 Xrotation Yrotation Zrotation
										JOINT LFinger02
										{
											OFFSET	2.6647	-0.9535	1.9198
											CHANNELS 3 Xrotation Yrotation Zrotation
											End Site
											{
												OFFSET	1.9595	-0.6745	1.3418
											}
										}
									}
								}
							}
						}
					}
				}
				JOINT RClavicle
				{
					OFFSET	-2.6187	25.0313	8.5759
					CHANNELS 3 Xrotation Yrotation Zrotation
					JOINT RShoulder
					{
						OFFSET	-15.3012	3.5910	-5.8106
						CHANNELS 3 Xrotation Yrotation Zrotation
						JOINT RForearm
						{
							OFFSET	-32.4969	-0.1152	-0.2816
							CHANNELS 3 Xrotation Yrotation Zrotation
							JOINT RHand
							{
								OFFSET	-27.1093	0.0786	-0.1624
								CHANNELS 3 Xrotation Yrotation Zrotation
								JOINT RFinger1
								{
									OFFSET	-10.5069	0.9190	2.9183
									CHANNELS 3 Xrotation Yrotation Zrotation
									JOINT RFinger11
									{
										OFFSET	-3.9301	-0.9583	0.6925
										CHANNELS 3 Xrotation Yrotation Zrotation
										JOINT RFinger12
										{
											OFFSET	-2.6829	-0.6545	0.4729
											CHANNELS 3 Xrotation Yrotation Zrotation
											End Site
											{
												OFFSET	-1.9092	-0.5699	0.3097
											}
										}
									}
								}
								JOINT RFinger2
								{
									OFFSET	-10.6636	1.0612	0.2541
									CHANNELS 3 Xrotation Yrotation Zrotation
									JOINT RFinger21
									{
										OFFSET	-4.8593	0.0136	-0.0287
										CHANNELS 3 Xrotation Yrotation Zrotation
										JOINT RFinger22
										{
											OFFSET	-2.6935	0.0082	-0.0165
											CHANNELS 3 Xrotation Yrotation Zrotation
											End Site
											{
												OFFSET	-2.4193	-0.1708	0.0032
											}
										}
									}
								}
								JOINT RFinger3
								{
									OFFSET	-10.1060	0.7082	-2.3909
									CHANNELS 3 Xrotation Yrotation Zrotation
									JOINT RFinger31
									{
										OFFSET	-4.4093	-0.2232	-0.2761
										CHANNELS 3 Xrotation Yrotation Zrotation
										JOINT RFinger32
										{
											OFFSET	-2.5127	-0.1264	-0.1578
											CHANNELS 3 Xrotation Yrotation Zrotation
											End Site
											{
												OFFSET	-2.2216	-0.2732	-0.1050
											}
										}
									}
								}
								JOINT RFinger4
								{
									OFFSET	-9.3780	-0.7126	-4.1291
									CHANNELS 3 Xrotation Yrotation Zrotation
									JOINT RFinger41
									{
										OFFSET	-2.7122	-0.5656	-0.7487
										CHANNELS 3 Xrotation Yrotation Zrotation
										JOINT RFinger42
										{
											OFFSET	-1.9888	-0.4141	-0.5494
											CHANNELS 3 Xrotation Yrotation Zrotation
											End Site
											{
												OFFSET	-1.7652	-0.4850	-0.4050
											}
										}
									}
								}
								JOINT RFinger0
								{
									OFFSET	-2.1735	-1.6450	1.6476
									CHANNELS 3 Xrotation Yrotation Zrotation
									JOINT RFinger01
									{
										OFFSET	-4.0466	-1.3291	3.0511
										CHANNELS 3 Xrotation Yrotation Zrotation
										JOINT RFinger02
										{
											OFFSET	-2.6646	-0.9534	1.9198
											CHANNELS 3 Xrotation Yrotation Zrotation
											End Site
											{
												OFFSET	-1.9595	-0.6745	1.3418
											}
										}
									}
								}
							}
						}
					}
				}
			}
		}
	}
	JOINT RThigh
	{
		OFFSET	-10.9042	4.6076	-0.8988
		CHANNELS 3 Xrotation Yrotation Zrotation
		JOINT RShin
		{
			OFFSET	-0.8725	-47.4282	0.0000
			CHANNELS 3 Xrotation Yrotation Zrotation
			JOINT RFoot
			{
				OFFSET	0.0000	-46.5716	0.0000
				CHANNELS 3 Xrotation Yrotation Zrotation
				JOINT RToe
				{
					OFFSET	0.0000	-5.1186	10.7037
					CHANNELS 3 Xrotation Yrotation Zrotation
					End Site
					{
						OFFSET	0.0000	0.0000	7.1807
					}
				}
			}
		}
	}
	JOINT LThigh
	{
		OFFSET	10.9040	4.6079	-0.8988
		CHANNELS 3 Xrotation Yrotation Zrotation
		JOINT LShin
		{
			OFFSET	0.8726	-47.4285	0.0000
			CHANNELS 3 Xrotation Yrotation Zrotation
			JOINT LFoot
			{
				OFFSET	0.0000	-46.5716	0.0000
				CHANNELS 3 Xrotation Yrotation Zrotation
				JOINT LToe
				{
					OFFSET	0.0000	-5.1187	10.7038
					CHANNELS 3 Xrotation Yrotation Zrotation
					End Site
					{
						OFFSET	0.0000	0.0000	7.1807
					}
				}
			}
		}
	}
}
MOTION
Frames:	6
Frame Time: 0.0333333000
	7.4625	98.3082	-90.9579	-5.287114	7.371171	-4.804240	0.000000	0.000000	0.000000	-0.180777	1.757064	-0.735206	-0.516103	5.865013	-2.435738	0.000000	0.000000	0.000000	-5.067216	0.134379	0.190655	0.000000	0.000000	-15.361460	17.129660	-30.607560	-56.464460	0.000000	-7.956695	0.000000	0.000000	0.000000	0.000000	0.000000	0.000000	0.000000	0.000000	0.000000	0.000000	0.000000	0.000000	0.000000	0.000000	0.000000	0.000000	0.000000	0.000000	0.000000	0.000000	0.000000	0.000000	0.000000	0.000000	0.000000	0.000000	0.000000	0.000000	0.000000	0.000000	0.000000	0.000000	0.000000	0.000000	0.000000	0.000000	0.000000	0.000000	0.000000	0.000000	0.000000	0.000000	0.000000	0.000000	0.000000	0.000000	0.000000	0.000000	0.000000	0.000000	0.000000	11.759810	137.970600	74.734990	-79.194130	0.000000	17.875760	0.000000	-62.366950	1.722594	12.112260	0.000000	0.000000	0.000000	0.000000	0.000000	0.000000	0.000000	0.000000	0.000000	0.000000	0.000000	0.000000	0.000000	0.000000	0.000000	0.000000	0.000000	0.000000	0.000000	0.000000	0.000000	0.000000	0.000000	0.000000	0.000000	0.000000	0.000000	0.000000	0.000000	0.000000	0.000000	0.000000	0.000000	0.000000	0.000000	0.000000	0.000000	0.000000	0.000000	0.000000	0.000000	0.000000	0.000000	0.000000	0.000000	0.233186	0.238139	5.385533	11.089370	0.000001	0.000000	-2.821294	-0.996888	-0.510064	0.000000	0.000000	0.000000	2.357603	0.307719	8.571465	4.559017	0.000000	0.000000	-2.211968	-2.588933	-1.302356	0.000000	0.000000	0.000000
	7.7413	98.2272	-91.3318	-5.162482	6.443824	-4.596065	0.000000	0.000000	0.000000	-0.231113	1.631861	-0.606465	-0.704138	5.448164	-2.000288	0.000000	0.000000	0.000000	-3.268612	2.025555	-0.141794	0.000000	0.000000	-15.512060	15.455070	-26.178070	-58.940190	0.000000	-3.815053	0.000000	0.000000	0.000000	0.000000	0.000000	0.000000	0.000000	0.000000	0.000000	0.000000	0.000000	0.000000	0.000000	0.000000	0.000000	0.000000	0.000000	0.000000	0.000000	0.000000	0.000000	0.000000	0.000000	0.000000	0.000000	0.000000	0.000000	0.000000	0.000000	0.000000	0.000000	0.000000	0.000000	0.000000	0.000000	0.000000	0.000000	0.000000	0.000000	0.000000	0.000000	0.000000	0.000000	0.000000	0.000000	0.000000	0.000000	0.000000	0.000000	0.000000	0.000000	11.556590	128.722900	75.968140	-71.367840	0.000000	19.171460	0.000000	-61.939190	3.539298	9.131569	0.000000	0.000000	0.000000	0.000000	0.000000	0.000000	0.000000	0.000000	0.000000	0.000000	0.000000	0.000000	0.000000	0.000000	0.000000	0.000000	0.000000	0.000000	0.000000	0.000000	0.000000	0.000000	0.000000	0.000000	0.000000	0.000000	0.000000	0.000000	0.000000	0.000000	0.000000	0.000000	0.000000	0.000000	0.000000	0.000000	0.000000	0.000000	0.000000	0.000000	0.000000	0.000000	0.000000	0.000000	0.000000	-0.524452	0.119059	4.835227	11.862720	0.000001	0.000000	-2.970598	-0.629315	-0.320355	0.000000	0.000000	0.000000	2.284065	0.309185	8.119498	4.265580	0.000000	0.000000	-2.081007	-2.043109	-1.031283	0.000000	0.000000	0.000000
	8.1237	98.1183	-91.7062	-5.173603	5.946822	-4.180645	0.000000	0.000000	0.000000	-0.220990	1.516543	-0.550177	-0.681343	5.062891	-1.814549	0.000000	0.000000	0.000000	-1.685653	3.223096	-0.354779	0.000000	0.000000	-15.430270	15.319820	-23.116710	-59.901330	0.000000	-2.235089	0.000000	0.000000	0.000000	0.000000	0.000000	0.000000	0.000000	0.000000	0.000000	0.000000	0.000000	0.000000	0.000000	0.000000	0.000000	0.000000	0.000000	0.000000	0.000000	0.000000	0.000000	0.000000	0.000000	0.000000	0.000000	0.000000	0.000000	0.000000	0.000000	0.000000	0.000000	0.000000	0.000000	0.000000	0.000000	0.000000	0.000000	0.000000	0.000000	0.000000	0.000000	0.000000	0.000000	0.000000	0.000000	0.000000	0.000000	0.000000	0.000000	0.000000	0.000000	11.307440	110.585000	78.317870	-55.020630	0.000000	20.818710	0.000000	-60.760520	7.372152	3.807263	0.000000	0.000000	0.000000	0.000000	0.000000	0.000000	0.000000	0.000000	0.000000	0.000000	0.000000	0.000000	0.000000	0.000000	0.000000	0.000000	0.000000	0.000000	0.000000	0.000000	0.000000	0.000000	0.000000	0.000000	0.000000	0.000000	0.000000	0.000000	0.000000	0.000000	0.000000	0.000000	0.000000	0.000000	0.000000	0.000000	0.000000	0.000000	0.000000	0.000000	0.000000	0.000000	0.000000	0.000000	0.000000	-1.173259	0.016444	4.017639	12.666100	0.000001	0.000000	-2.788459	0.513501	0.266065	0.000000	0.000000	0.000000	2.219765	0.250491	7.283829	4.323011	0.000000	0.000000	-2.489394	-2.789262	-1.409534	0.000000	0.000000	0.000000
	8.6150	98.0264	-91.8324	-5.339128	6.467078	-3.753229	0.000000	0.000000	0.000000	-0.179769	1.449461	-0.558506	-0.545109	4.837807	-1.847173	0.000000	0.000000	0.000000	-0.448745	3.004391	-0.114806	0.000000	0.000000	-15.328990	15.657690	-21.346610	-60.172520	0.000000	-2.323737	0.000000	0.000000	0.000000	0.000000	0.000000	0.000000	0.000000	0.000000	0.000000	0.000000	0.000000	0.000000	0.000000	0.000000	0.000000	0.000000	0.000000	0.000000	0.000000	0.000000	0.000000	0.000000	0.000000	0.000000	0.000000	0.000000	0.000000	0.000000	0.000000	0.000000	0.000000	0.000000	0.000000	0.000000	0.000000	0.000000	0.000000	0.000000	0.000000	0.000000	0.000000	0.000000	0.000000	0.000000	0.000000	0.000000	0.000000	0.000000	0.000000	0.000000	0.000000	11.170800	76.924400	79.456310	-22.762840	0.000000	22.167840	0.000000	-57.743130	11.460710	-0.133573	0.000000	0.000000	0.000000	0.000000	0.000000	0.000000	0.000000	0.000000	0.000000	0.000000	0.000000	0.000000	0.000000	0.000000	0.000000	0.000000	0.000000	0.000000	0.000000	0.000000	0.000000	0.000000	0.000000	0.000000	0.000000	0.000000	0.000000	0.000000	0.000000	0.000000	0.000000	0.000000	0.000000	0.000000	0.000000	0.000000	0.000000	0.000000	0.000000	0.000000	0.000000	0.000000	0.000000	0.000000	0.000000	-1.011912	-0.076987	3.133899	12.562060	0.000001	0.000000	-2.162961	1.207991	0.605480	0.000000	0.000000	0.000000	2.068212	0.214340	6.407950	4.899511	0.000000	0.000000	-3.035874	-4.420702	-2.258641	0.000000	0.000000	0.000000
	8.9772	98.0297	-91.6565	-5.643089	7.440864	-3.527645	0.000000	0.000000	0.000000	-0.173775	1.420725	-0.569643	-0.525186	4.741652	-1.885174	0.000000	0.000000	0.000000	-0.052296	2.195265	-0.230704	0.000000	0.000000	-15.221300	16.042270	-20.584480	-60.202240	0.000000	-2.203453	0.000000	0.000000	0.000000	0.000000	0.000000	0.000000	0.000000	0.000000	0.000000	0.000000	0.000000	0.000000	0.000000	0.000000	0.000000	0.000000	0.000000	0.000000	0.000000	0.000000	0.000000	0.000000	0.000000	0.000000	0.000000	0.000000	0.000000	0.000000	0.000000	0.000000	0.000000	0.000000	0.000000	0.000000	0.000000	0.000000	0.000000	0.000000	0.000000	0.000000	0.000000	0.000000	0.000000	0.000000	0.000000	0.000000	0.000000	0.000000	0.000000	0.000000	0.000000	11.080410	50.264260	77.290900	2.884304	0.000000	22.495870	0.000000	-55.176880	15.201910	-2.668453	0.000000	0.000000	0.000000	0.000000	0.000000	0.000000	0.000000	0.000000	0.000000	0.000000	0.000000	0.000000	0.000000	0.000000	0.000000	0.000000	0.000000	0.000000	0.000000	0.000000	0.000000	0.000000	0.000000	0.000000	0.000000	0.000000	0.000000	0.000000	0.000000	0.000000	0.000000	0.000000	0.000000	0.000000	0.000000	0.000000	0.000000	0.000000	0.000000	0.000000	0.000000	0.000000	0.000000	0.000000	0.000000	-0.151266	-0.408528	2.693408	11.476230	0.000001	0.000000	-1.189600	0.850593	0.414094	0.000000	0.000000	0.000000	2.237709	0.251335	5.971059	4.790782	0.000000	0.000000	-2.438555	-5.453139	-2.767041	0.000000	0.000000	0.000000
	9.1444	98.1780	-91.3758	-6.070086	7.682631	-3.515128	0.000000	0.000000	0.000000	-0.218638	1.438390	-0.500503	-0.681104	4.801787	-1.649970	0.000000	0.000000	0.000000	2.416062	1.254993	1.109880	0.000000	0.000000	-15.115400	16.739950	-20.313570	-60.185790	0.000000	-1.442343	0.000000	0.000000	0.000000	0.000000	0.000000	0.000000	0.000000	0.000000	0.000000	0.000000	0.000000	0.000000	0.000000	0.000000	0.000000	0.000000	0.000000	0.000000	0.000000	0.000000	0.000000	0.000000	0.000000	0.000000	0.000000	0.000000	0.000000	0.000000	0.000000	0.000000	0.000000	0.000000	0.000000	0.000000	0.000000	0.000000	0.000000	0.000000	0.000000	0.000000	0.000000	0.000000	0.000000	0.000000	0.000000	0.000000	0.000000	0.000000	0.000000	0.000000	0.000000	10.906120	44.096130	74.955920	8.062490	0.000000	21.556220	0.000000	-54.793510	18.427740	-4.216931	0.000000	0.000000	0.000000	0.000000	0.000000	0.000000	0.000000	0.000000	0.000000	0.000000	0.000000	0.000000	0.000000	0.000000	0.000000	0.000000	0.000000	0.000000	0.000000	0.000000	0.000000	0.000000	0.000000	0.000000	0.000000	0.000000	0.000000	0.000000	0.000000	0.000000	0.000000	0.000000	0.000000	0.000000	0.000000	0.000000	0.000000	0.000000	0.000000	0.000000	0.000000	0.000000	0.000000	0.000000	0.000000	0.654726	-0.729522	2.809344	10.522510	0.000001	0.000000	-0.389389	0.104171	0.049340	0.000000	0.000000	0.000000	3.252576	0.349336	5.938333	3.267684	0.000000	0.000000	-0.712396	-4.898808	-2.377280	0.000000	0.000000	0.000000
